HIERARCHY
ROOT mug2
{
	OFFSET 0.000000 0.000000 0.000000
	CHANNELS 6 Xposition Yposition Zposition Yrotation Xrotation Zrotation
	End Site
	{
		OFFSET 0.000000 0.000000 0.000000
	}
}
MOTION
Frames: 173
Frame Time: 0.008333334
1.708219 4.236948 3.241370 35.216850 -1.804169 -2.958771 
1.707109 4.213633 3.233305 35.140460 -1.885498 -2.961945 
1.707133 4.190716 3.225755 35.065660 -2.015900 -2.963226 
1.707551 4.169037 3.217748 35.054430 -2.170197 -3.157471 
1.707227 4.147861 3.210492 34.968190 -2.208984 -3.341949 
1.706863 4.126867 3.204465 34.906010 -2.260651 -3.485565 
1.706765 4.106703 3.198761 34.950880 -2.362915 -3.505371 
1.705367 4.087050 3.193778 34.977760 -2.379150 -3.515472 
1.703379 4.067867 3.188744 35.027670 -2.378235 -3.543274 
1.701064 4.049026 3.184577 35.109290 -2.367004 -3.436462 
1.699345 4.030191 3.181443 35.226460 -2.378571 -3.410767 
1.697095 4.012196 3.177341 35.388970 -2.441772 -3.434021 
1.695975 3.993931 3.173478 35.549450 -2.513611 -3.358673 
1.694543 3.975325 3.170749 35.541920 -2.421448 -3.509918 
1.693442 3.957871 3.166961 35.674080 -2.505981 -3.552765 
1.692147 3.939667 3.164277 35.651150 -2.392883 -3.689087 
1.691447 3.922701 3.161400 35.743540 -2.407959 -3.819489 
1.691166 3.905926 3.159044 35.775460 -2.392365 -3.851990 
1.689853 3.890145 3.156130 35.729140 -2.318756 -3.954803 
1.689159 3.874272 3.155098 35.771220 -2.326843 -3.962555 
1.688154 3.858112 3.153445 35.769750 -2.207581 -3.893188 
1.686556 3.842766 3.152263 35.753290 -2.114685 -3.922119 
1.685382 3.827210 3.151297 35.767770 -2.045135 -3.951416 
1.684355 3.812344 3.150196 35.908110 -2.031342 -3.905212 
1.682746 3.797056 3.149968 35.895370 -2.029236 -4.124146 
1.682192 3.782546 3.149812 36.001000 -2.071838 -4.227112 
1.681201 3.767982 3.149709 36.044750 -2.055634 -4.386871 
1.680171 3.753832 3.149567 36.081170 -2.098114 -4.571472 
1.679593 3.740761 3.149301 36.157080 -2.010712 -4.650146 
1.678453 3.728261 3.149728 36.191560 -1.944427 -4.754852 
1.678017 3.715791 3.149938 36.307160 -1.925110 -4.821991 
1.677392 3.704148 3.150829 36.313730 -1.814514 -4.843262 
1.676253 3.693183 3.151386 36.318410 -1.764069 -4.880798 
1.675292 3.682005 3.152447 36.392340 -1.686676 -4.786652 
1.673830 3.671511 3.153795 36.412940 -1.636871 -4.759918 
1.672328 3.661065 3.155051 36.464860 -1.636963 -4.645599 
1.671244 3.651079 3.156070 36.584100 -1.660126 -4.518463 
1.670092 3.640378 3.157449 36.612340 -1.764954 -4.517181 
1.669075 3.629772 3.158860 36.606090 -1.702911 -4.383453 
1.668268 3.619979 3.159169 36.636560 -1.780762 -4.407715 
1.667704 3.610263 3.159571 36.603770 -1.817963 -4.429688 
1.667991 3.600437 3.160594 36.585780 -1.791595 -4.434418 
1.668583 3.590768 3.161220 36.621170 -1.895752 -4.378357 
1.668348 3.581667 3.162307 36.570910 -1.860382 -4.495575 
1.668997 3.573142 3.163171 36.640560 -1.873413 -4.377594 
1.669191 3.565094 3.164994 36.594170 -1.862457 -4.517975 
1.669621 3.556631 3.166941 36.607580 -1.754089 -4.507813 
1.670841 3.548944 3.168629 36.658170 -1.726654 -4.555450 
1.672765 3.541139 3.169954 36.709950 -1.704041 -4.639313 
1.674171 3.532681 3.171666 36.698030 -1.685516 -4.782196 
1.677055 3.524281 3.172478 36.722420 -1.760834 -4.964417 
1.679974 3.514935 3.173470 36.760680 -1.767761 -5.231171 
1.683514 3.505184 3.174896 36.706070 -1.776611 -5.332245 
1.686646 3.496399 3.175563 36.614970 -1.880493 -5.610046 
1.690594 3.487900 3.176596 36.535680 -1.775299 -5.783569 
1.694826 3.479966 3.177254 36.410760 -1.690063 -5.989044 
1.699868 3.471722 3.178720 36.347930 -1.579681 -6.143555 
1.705340 3.464892 3.179587 36.243060 -1.538940 -6.357666 
1.711308 3.457460 3.181125 36.150760 -1.415344 -6.640015 
1.717123 3.449447 3.182303 36.020410 -1.238464 -6.971527 
1.723060 3.442348 3.183899 35.869820 -1.215149 -7.295319 
1.729724 3.434152 3.185096 35.867940 -1.242706 -7.599731 
1.736215 3.425261 3.187400 35.833470 -1.319458 -7.800720 
1.740751 3.419054 3.189738 35.736400 -1.232147 -7.836060 
1.742404 3.421524 3.196906 35.983810 -0.678833 -7.302277 
1.744324 3.422047 3.202401 36.046490 -0.511627 -6.991913 
1.746988 3.420299 3.206326 36.014850 -0.544037 -6.847717 
1.749826 3.416322 3.208190 35.971560 -0.668640 -6.835754 
1.750936 3.416073 3.212590 36.034360 -0.613190 -6.496582 
1.751375 3.415646 3.217253 36.102520 -0.582642 -6.083710 
1.752317 3.412774 3.219945 36.074420 -0.683319 -5.817230 
1.753113 3.411243 3.223300 36.080170 -0.802582 -5.471710 
1.753722 3.409451 3.226052 36.108760 -0.922699 -5.166077 
1.754235 3.408256 3.229429 36.098480 -0.915955 -4.848175 
1.754858 3.407437 3.231640 36.127730 -0.904816 -4.730316 
1.755570 3.407047 3.233979 36.126590 -0.945587 -4.532654 
1.756364 3.406524 3.236461 36.180700 -0.961426 -4.407196 
1.757081 3.405886 3.239210 36.176090 -0.948914 -4.206390 
1.757121 3.405164 3.242129 36.178590 -0.977997 -4.069580 
1.756723 3.404394 3.244649 36.232610 -1.071960 -3.808655 
1.755832 3.403847 3.246953 36.352310 -1.183258 -3.472168 
1.753875 3.403045 3.249870 36.421300 -1.247345 -3.193054 
1.753158 3.402190 3.252450 36.595670 -1.309753 -2.677551 
1.751470 3.401191 3.255939 36.592570 -1.349457 -2.458221 
1.750390 3.400414 3.258934 36.739380 -1.305786 -2.110321 
1.749538 3.399893 3.261373 36.785820 -1.176941 -1.819397 
1.749017 3.399696 3.262890 36.734080 -1.054565 -1.767090 
1.749820 3.399486 3.263771 36.633540 -0.985992 -1.813507 
1.751503 3.399552 3.263980 36.493150 -0.820557 -1.921661 
1.753924 3.398951 3.264942 36.252010 -0.672516 -2.088013 
1.756171 3.398348 3.265702 36.021510 -0.473236 -2.215179 
1.757944 3.397309 3.266871 35.866760 -0.263855 -2.179993 
1.758585 3.396071 3.268363 35.737390 0.095145 -1.943420 
1.758971 3.393944 3.271600 35.655850 0.479419 -1.540283 
1.759241 3.391985 3.276137 35.588620 1.019603 -1.111572 
1.761470 3.390704 3.280222 35.497790 1.699521 -0.925842 
1.765654 3.390134 3.278478 35.240720 1.806655 -1.421661 
1.766380 3.389464 3.278885 34.964420 1.787668 -1.241974 
1.768804 3.389783 3.278548 34.753210 1.747445 -1.174286 
1.771549 3.389746 3.278686 34.445560 1.732794 -1.221039 
1.774163 3.389560 3.278727 34.180220 1.691114 -1.170166 
1.776556 3.389029 3.278750 33.869280 1.781439 -1.152740 
1.779304 3.388834 3.278495 33.550360 1.756191 -1.123688 
1.782208 3.388475 3.277663 33.213200 1.781825 -1.075684 
1.784723 3.389027 3.277024 32.852310 1.666005 -1.161285 
1.787140 3.388654 3.275878 32.526100 1.590092 -1.253845 
1.789636 3.387974 3.274809 32.224540 1.684023 -1.170563 
1.791601 3.388662 3.273593 31.897860 1.580014 -1.237061 
1.794139 3.387909 3.272473 31.735280 1.738275 -1.179565 
1.796030 3.387859 3.271544 31.509470 1.668446 -1.202301 
1.798085 3.388206 3.270912 31.263650 1.597053 -1.264771 
1.800317 3.387724 3.270077 31.099170 1.671899 -1.212036 
1.801763 3.387455 3.270141 30.876630 1.630317 -1.182648 
1.803144 3.387501 3.270388 30.708210 1.599945 -1.196198 
1.804251 3.387587 3.271045 30.619740 1.640627 -1.155853 
1.804504 3.387836 3.271690 30.514760 1.526631 -1.180634 
1.804955 3.387948 3.272267 30.536510 1.566215 -1.181732 
1.805244 3.387676 3.272821 30.554960 1.659332 -1.138275 
1.805325 3.387641 3.273005 30.553960 1.656066 -1.134705 
1.805385 3.387531 3.273328 30.547380 1.655938 -1.101105 
1.805401 3.387537 3.273464 30.508050 1.648146 -1.118927 
1.805303 3.388055 3.273599 30.466410 1.597861 -1.154785 
1.805478 3.387769 3.273465 30.401340 1.562806 -1.157410 
1.805788 3.387845 3.273399 30.322940 1.562227 -1.160980 
1.806199 3.387748 3.273325 30.172260 1.497831 -1.159790 
1.807172 3.387827 3.273210 30.005880 1.475613 -1.171570 
1.808529 3.387591 3.273477 29.786500 1.515584 -1.120300 
1.810222 3.387286 3.273845 29.567250 1.550830 -1.040222 
1.811266 3.387912 3.274484 29.253600 1.450448 -1.197327 
1.813016 3.388134 3.274609 29.053450 1.371201 -1.116913 
1.813599 3.387901 3.275773 28.735590 1.382027 -1.236572 
1.815138 3.387738 3.276629 28.515280 1.408936 -1.246124 
1.816672 3.387467 3.277224 28.313300 1.461796 -1.160065 
1.818304 3.387580 3.278537 28.064890 1.405987 -1.162384 
1.819887 3.387738 3.279070 27.760930 1.382799 -1.156555 
1.821510 3.387495 3.279944 27.473140 1.413232 -1.125214 
1.823172 3.387634 3.280466 27.150240 1.407511 -1.061584 
1.824851 3.387974 3.281747 26.808110 1.219555 -1.140656 
1.825803 3.387690 3.281994 26.390770 1.335515 -1.129395 
1.827415 3.387255 3.282368 25.991370 1.361242 -1.119415 
1.828147 3.387349 3.282697 25.495760 1.357970 -1.080933 
1.829274 3.387415 3.283150 25.031880 1.297639 -1.138306 
1.830558 3.387525 3.283919 24.527800 1.285280 -1.145630 
1.831680 3.387551 3.284907 24.108140 1.222459 -1.092041 
1.833022 3.387306 3.285542 23.714760 1.288320 -1.042877 
1.833822 3.387463 3.286336 23.271970 1.230343 -1.074646 
1.835125 3.387733 3.287222 22.874400 1.163956 -1.029175 
1.835986 3.388357 3.288474 22.427790 1.059316 -1.106964 
1.836379 3.388160 3.289827 21.948710 1.041297 -1.117218 
1.836936 3.388112 3.291121 21.495700 0.995932 -1.149658 
1.837778 3.387581 3.292529 21.080860 1.064360 -1.075806 
1.837981 3.387891 3.293895 20.558870 1.055594 -1.055328 
1.838320 3.388086 3.294788 20.086170 0.995812 -1.035461 
1.838517 3.387946 3.295519 19.608710 0.980516 -1.008179 
1.839649 3.388388 3.296285 19.334960 0.856849 -1.132935 
1.840439 3.388501 3.296845 19.099210 0.831971 -1.096558 
1.841172 3.388633 3.296981 18.950800 0.817441 -1.090454 
1.841416 3.388180 3.296882 18.901330 0.925752 -1.037659 
1.841143 3.388843 3.297099 18.857120 0.789277 -1.108826 
1.841291 3.388741 3.297022 18.853400 0.809438 -1.111572 
1.841540 3.388502 3.296642 18.876500 0.875887 -1.068207 
1.841192 3.388768 3.297005 18.851550 0.818336 -1.078827 
1.841036 3.388655 3.297028 18.857300 0.781007 -1.094635 
1.841043 3.388627 3.297044 18.845110 0.802120 -1.100403 
1.841210 3.388432 3.296875 18.873340 0.864563 -1.074585 
1.841103 3.388760 3.297057 18.858250 0.835165 -1.083374 
1.840932 3.388674 3.297070 18.847460 0.791834 -1.091400 
1.840986 3.388688 3.297090 18.867170 0.806090 -1.083893 
1.840978 3.388694 3.297075 18.867300 0.804348 -1.082123 
1.840973 3.388773 3.296960 18.861490 0.807056 -1.080627 
1.841248 3.388443 3.296704 18.880090 0.857761 -1.070557 
1.841094 3.388821 3.296819 18.851410 0.788791 -1.115540 
1.841680 3.388051 3.296558 18.917880 0.964364 -1.018341 
